<svg xmlns="http://www.w3.org/2000/svg" viewBox="0 0 46.77 41.42"><defs><style>.cls-1{fill:#8a6fad;}</style></defs><g id="Camada_2" data-name="Camada 2"><g id="Layer_1" data-name="Layer 1"><path class="cls-1" d="M17.48,33.65a3.89,3.89,0,1,1-3.89,3.89A3.89,3.89,0,0,1,17.48,33.65Z"/><path class="cls-1" d="M34.44,33.65a3.89,3.89,0,1,1-3.89,3.89A3.89,3.89,0,0,1,34.44,33.65Z"/><path class="cls-1" d="M44.34,12.34h-24a1.89,1.89,0,0,0-1.42,1.88,2.13,2.13,0,0,0,1.42,2H41.86l-1.21,4.09H19.51a1.76,1.76,0,0,0-1.32,1.75A2,2,0,0,0,19.51,24H39.58l-1.13,3.83H16.62L15.17,16.23l-.47-3.89s-.43-3.6-.66-5.08-4-3.36-12-7.14c-1.89-.8-3.47,2.65,0,4.46l6.32,3s1.47.86,1.6,2,2.69,20.18,2.69,20.18.1,2.65,2.51,2.65H39.3a2.56,2.56,0,0,0,2.41-2.11L46.49,16S47.91,12.34,44.34,12.34Z"/></g></g></svg>