<svg xmlns="http://www.w3.org/2000/svg" viewBox="0 0 92.28 72.72"><defs><style>.cls-1{fill:#8a70ad;}</style></defs><g id="Camada_2" data-name="Camada 2"><g id="Layer_1" data-name="Layer 1"><path class="cls-1" d="M85.13,0H75.24V4.1a.93.93,0,0,1-.93.93H72.16a.92.92,0,0,1-.93-.93V0h-9.9A1.34,1.34,0,0,0,60,1.34V22.46a1.34,1.34,0,0,0,1.34,1.34h23.8a1.34,1.34,0,0,0,1.35-1.34V1.34A1.34,1.34,0,0,0,85.13,0Z"/><path class="cls-1" d="M71.35,72.72a10.9,10.9,0,1,1,10.9-10.9,10.91,10.91,0,0,1-10.9,10.9Zm0-16.31a5.41,5.41,0,1,0,5.41,5.41,5.42,5.42,0,0,0-5.41-5.41Z"/><path class="cls-1" d="M10.9,72.72a10.9,10.9,0,1,1,10.9-10.9,10.91,10.91,0,0,1-10.9,10.9Zm0-16.31a5.41,5.41,0,1,0,5.41,5.41,5.42,5.42,0,0,0-5.41-5.41Z"/><path class="cls-1" d="M76.56,40.48v-3h7.6a3.11,3.11,0,0,0,3.11-3.11V32.17a3.11,3.11,0,0,0-3.11-3.11H46.07A3.11,3.11,0,0,0,43,32.17v2.25a3.11,3.11,0,0,0,3.11,3.11h4.21v12H29.18a21,21,0,0,0-5.94-6.08l8.3-29.93h7.67a3.12,3.12,0,0,0,0-6.23H28.31a3.88,3.88,0,0,0-1.4.33,3.06,3.06,0,0,0-1.2,1.06L3.62,41.75A3.88,3.88,0,0,0,2.84,45c.57,1.66,2.47,2.26,4.43,1.68a14,14,0,0,1,4.28-.64A14.73,14.73,0,0,1,26.26,60.76a3.12,3.12,0,0,0,3.11,3.12H53.53a3.12,3.12,0,0,0,3.12-3.12,14.71,14.71,0,1,1,29.41,0,3.11,3.11,0,1,0,6.22,0A21,21,0,0,0,76.56,40.48Z"/></g></g></svg>