<svg xmlns="http://www.w3.org/2000/svg" viewBox="0 0 335.61 224.82"><defs><style>.cls-1{fill:#8a70ad;}</style></defs><g id="Camada_2" data-name="Camada 2"><g id="Layer_1" data-name="Layer 1"><path class="cls-1" d="M309.43,96.94c-1.3-.27-2.53-.53-3.62-.81-12.07-3.14-18.06-5-22.26-13.11l-15.76-31.9c-5-9.71-18-17.61-28.94-17.61H210.57V11.77A11.78,11.78,0,0,0,198.8,0L11.06.19C4.76.19,0,5.21,0,11.87V174.64a11.78,11.78,0,0,0,11.77,11.77H32.29a44.69,44.69,0,0,0,88.5,0h74.8c.5,0,1,0,1.5-.07a44.7,44.7,0,0,0,88.52.07H315a20.63,20.63,0,0,0,20.61-20.62V130.43c0-28-15.75-31.3-26.18-33.49ZM76.54,196.68a16.56,16.56,0,1,1,16.57-16.56,16.58,16.58,0,0,1-16.57,16.56Zm164.81,0a16.56,16.56,0,1,1,16.57-16.56,16.58,16.58,0,0,1-16.57,16.56ZM210.57,94.41v-44h21.66c8.32,0,18.57,6.24,22.39,13.59l14,28.39c.36.7.74,1.35,1.13,2Z"/></g></g></svg>